<svg width="24" height="18" viewBox="0 0 24 18" fill="none" xmlns="http://www.w3.org/2000/svg">
<path id="&#226;&#128;&#156;" d="M13.6563 18V12.5874C13.6563 9.18881 14.5127 6.41958 16.2254 4.27972C17.9831 2.0979 20.5746 0.671328 24 0V4.09091C22.4676 4.42657 21.2507 5.05594 20.3493 5.97902C19.4479 6.86014 18.862 7.93007 18.5915 9.18881H22.6479V18H13.6563ZM0 18V12.5874C0 9.18881 0.856337 6.41958 2.56901 4.27972C4.32676 2.0979 6.89577 0.671328 10.2761 0V4.09091C8.74366 4.42657 7.52676 5.05594 6.62535 5.97902C5.72394 6.86014 5.13803 7.93007 4.86761 9.18881H8.92394V18H0Z" fill="#212427"/>
</svg>
